<svg width="891" height="502" viewBox="0 0 891 502" fill="none" xmlns="http://www.w3.org/2000/svg">
<path d="M283.733 269.023C275.841 284.234 266.635 297.746 256.114 309.508C238.222 329.496 216.004 344.584 190.851 354.001C180.974 357.698 170.49 360.614 159.435 362.723C122.225 366.16 96.0039 362.723 62.4093 352.711C42.0859 344.224 24.2193 331.767 8.18891 316.729C-1.42683 307.721 -1.42684 307.597 7.75464 298.081C16.477 289.036 25.2987 280.09 34.1824 271.194C35.9939 269.37 38.2893 266.38 40.7956 270.052C43.215 273.626 46.5898 276.107 49.6421 278.899C70.1763 297.709 117.004 312 117.004 312C117.004 312 125.503 313.5 127.004 313.5C145.766 315.942 157.504 314 185.004 298.081C200.861 287.807 220.629 266.827 231.411 247.682C239.637 233.066 247.553 218.301 255.295 203.437C256.759 200.621 256.759 200.621 259.712 195.05C262.293 190.819 261.387 192.531 262.131 191.129C270.482 175.496 278.782 159.837 287.008 144.13C287.939 142.368 287.939 142.368 289.663 138.571C291.4 134.712 291.016 135.643 292.008 133.782C302.728 113.607 313.523 93.4702 324.23 73.2958C332.494 57.7617 340.658 42.1904 348.946 26.6687C349.802 25.0806 350.187 22.4254 352.197 22.4006C354.529 22.3758 355.112 25.217 356.08 26.9045C358.897 31.793 361.329 36.9172 363.922 41.9546C379.642 72.5265 395.362 103.111 411.157 133.633C411.951 135.147 412.273 138.249 415.499 136.598C415.487 136.71 415.487 136.822 415.487 136.933C415.09 144.924 420.686 150.631 423.738 157.182C430.028 170.57 437.311 183.486 444.198 196.601C444.706 197.568 445.103 198.697 446.357 198.797C446.493 198.822 446.654 198.822 446.816 198.797C446.208 200.993 446.989 202.904 447.982 204.802C461.68 230.944 475.365 257.074 489.013 283.217C502.512 309.024 515.925 334.881 529.511 360.639C531.868 365.106 530.404 366.061 526.024 366.049C508.766 365.949 493.75 365.589 476.504 366.049C470.387 366.21 464.856 364.448 462.151 358.952C451.059 336.42 439.594 314.061 428.08 291.741C424.532 284.867 419.606 278.614 416.703 271.516C415.4 268.303 413.936 265.189 412.385 262.099C407.906 253.178 402.769 244.617 398.898 235.399C395.387 227.011 389.841 219.43 386.466 211.117C385.064 207.668 383.587 204.256 382.036 200.881C373.674 182.506 363.562 165.036 355.05 146.76C352.966 142.269 350.931 141.983 348.549 146.562C344.306 154.713 339.69 162.691 335.707 170.954C330.806 181.141 326.004 190 320.235 201.08C315.504 209 311.451 216.179 307.195 223.81C301.885 233.314 296.922 243.029 291.748 252.608" fill="#4682B4"/>
<path d="M656.886 362.095C639.634 362.569 622.389 362.892 605.167 363.923C599.059 364.287 595.698 362.524 592.813 357.12C580.979 334.969 568.78 313.003 556.532 291.076C552.757 284.324 547.627 278.237 544.49 271.241C539.004 258.922 531.117 247.961 525.497 235.733C521.71 227.467 515.915 220.074 512.267 211.877C502.527 189.967 489.521 169.89 478.734 148.597C476.502 144.177 474.459 143.96 472.23 148.614C468.259 156.902 463.911 165.029 460.204 173.42C455.967 183.02 450.001 191.784 446.519 201.719C445.264 201.674 444.829 200.546 444.289 199.596C436.984 186.716 429.264 174.061 422.533 160.877C419.253 154.432 413.483 148.912 413.615 140.913C414.342 140.008 414.725 138.816 415.271 137.705C425.316 117.186 435.437 96.7022 445.47 76.1838C453.214 60.3842 460.857 44.5507 468.626 28.7628C469.429 27.1471 469.725 24.4806 471.733 24.3892C474.064 24.287 474.741 27.1074 475.764 28.7618C478.741 33.5542 481.341 38.595 484.1 43.5437C500.825 73.5774 517.551 103.624 534.349 133.605C535.122 134.985 537.138 137.919 537.138 137.919C541.917 146.266 543.516 149.214 547.704 156.724C554.435 169.896 562.143 182.564 569.46 195.443C570.066 196.502 570.11 196.858 571.176 198.824C572.655 201.552 572.459 201.649 573.514 203.514C588.071 229.188 602.616 254.849 617.123 280.525C631.471 305.87 645.733 331.268 660.166 356.562C662.696 360.972 661.264 361.975 656.886 362.095Z" fill="#4682B4"/>
<path d="M547.18 134C544.18 128.5 541.964 125.042 539.18 120L537.18 116.5C532.18 108 530.18 104.5 525.68 96.5L514.18 76.5L481.812 20.3274L535.68 18C538.778 23.3493 542.461 29.5294 545.18 34.5C565.18 69 584.18 101.5 603.68 136C622.614 169.5 642.18 203 661.331 236.296C682.469 268.786 702.64 289.834 725.68 299C756.095 311.091 776.328 315.5 812.004 295C834.628 282 844.504 272.5 857.504 260C859.575 257.189 866.258 261.872 870.004 265.5C880.743 275.873 874.45 269.668 885.237 280.002C887.662 282.304 888.383 284.803 885.501 287.567C883.889 289.125 882.843 291.327 881.35 293.028C848.887 330.232 809.064 350.05 760.899 350.518C725.288 350.859 694.322 337.702 667.131 313.748C632.899 283.597 608.18 240.5 587.68 204.5C575.832 183.694 561.18 159 552.18 142.5" fill="#4682B4"/>
<path d="M446.468 78.9411C454.819 95.4678 478.02 143.546 478.02 143.546L469.186 161.066L448.28 199.02L446.778 201.849L414.172 137.219" fill="#4682B4"/>
<path d="M393.316 311.555H356.367V348.504H393.316V311.555Z" fill="#315A7D"/>
<path d="M392.844 259.99H355.895V296.939H392.844V259.99Z" fill="#B3B3B3"/>
<path d="M342.32 259.99H305.371V296.939H342.32V259.99Z" fill="#315A7D"/>
<path d="M342.32 311.555H305.371V348.504H342.32V311.555Z" fill="#B3B3B3"/>
<path d="M22.0089 454.228H33.1507V486.537C33.1383 489.564 32.4187 492.207 30.9794 494.465C29.5526 496.723 27.5798 498.473 25.0611 499.726C22.5424 500.979 19.6267 501.599 16.3263 501.599C13.4105 501.599 10.7554 501.091 8.37313 500.073C5.99091 499.056 4.09259 497.468 2.69055 495.321C1.28852 493.175 0.581285 490.433 0.6061 487.083H11.8596C11.9093 488.286 12.1326 489.304 12.5544 490.147C12.9763 490.991 13.5594 491.624 14.3039 492.058C15.0483 492.48 15.9417 492.691 16.9715 492.691C18.0509 492.691 18.9691 492.455 19.7135 491.996C20.4579 491.537 21.0287 490.842 21.4133 489.924C21.798 489.006 22.0089 487.877 22.0213 486.524V454.228H22.0089Z" fill="#315A7D"/>
<path d="M40.2116 454.228H54.1948L66.0563 483.162H66.6022L78.4637 454.228H92.4468V500.967H81.4538V472.256H81.0692L69.8405 500.669H62.8179L51.5892 472.095H51.2046V500.967H40.1992V454.228H40.2116Z" fill="#315A7D"/>
<path d="M141.965 471.164H130.551C130.402 469.998 130.092 468.931 129.62 467.988C129.149 467.045 128.528 466.238 127.747 465.568C126.965 464.898 126.059 464.39 124.992 464.03C123.938 463.67 122.771 463.496 121.493 463.496C119.223 463.496 117.275 464.055 115.637 465.159C113.999 466.276 112.746 467.876 111.865 469.973C110.984 472.07 110.55 474.613 110.55 477.591C110.55 480.693 110.997 483.298 111.89 485.383C112.783 487.48 114.036 489.056 115.649 490.11C117.275 491.165 119.185 491.698 121.406 491.698C122.647 491.698 123.789 491.537 124.818 491.214C125.848 490.892 126.754 490.433 127.536 489.812C128.317 489.192 128.963 488.448 129.471 487.554C129.98 486.661 130.34 485.656 130.526 484.527L141.941 484.589C141.742 486.661 141.147 488.696 140.154 490.706C139.161 492.716 137.797 494.54 136.06 496.19C134.323 497.84 132.213 499.155 129.732 500.123C127.25 501.091 124.397 501.587 121.183 501.587C116.952 501.587 113.168 500.656 109.83 498.795C106.493 496.934 103.85 494.217 101.927 490.631C99.9912 487.058 99.0234 482.703 99.0234 477.579C99.0234 472.442 100.004 468.075 101.964 464.501C103.924 460.928 106.58 458.211 109.93 456.35C113.28 454.489 117.027 453.57 121.183 453.57C124.012 453.57 126.63 453.967 129.037 454.749C131.444 455.531 133.553 456.672 135.377 458.174C137.201 459.675 138.69 461.511 139.831 463.682C140.985 465.879 141.693 468.36 141.965 471.164Z" fill="#315A7D"/>
<path d="M172.338 500.967H160.191L175.961 454.228H190.999L206.769 500.967H194.622L183.641 466.003H183.282L172.338 500.967ZM170.725 482.579H196.098V491.165H170.725V482.579Z" fill="#315A7D"/>
<path d="M235.629 468.248C235.48 466.573 234.798 465.271 233.606 464.34C232.415 463.409 230.716 462.938 228.507 462.938C227.043 462.938 225.827 463.124 224.859 463.509C223.879 463.893 223.159 464.414 222.663 465.072C222.179 465.73 221.931 466.486 221.906 467.343C221.881 468.037 222.018 468.658 222.328 469.191C222.638 469.725 223.097 470.196 223.693 470.593C224.288 471.003 225.021 471.35 225.877 471.66C226.733 471.971 227.688 472.231 228.755 472.454L232.775 473.373C235.083 473.881 237.13 474.539 238.904 475.383C240.679 476.214 242.168 477.219 243.371 478.373C244.575 479.527 245.493 480.854 246.125 482.368C246.746 483.869 247.068 485.557 247.081 487.43C247.068 490.383 246.324 492.914 244.848 495.024C243.371 497.145 241.249 498.758 238.495 499.887C235.74 501.016 232.403 501.575 228.507 501.575C224.599 501.575 221.187 500.991 218.283 499.813C215.38 498.646 213.122 496.86 211.509 494.478C209.896 492.095 209.065 489.068 209.027 485.42H219.847C219.933 486.921 220.343 488.187 221.063 489.192C221.782 490.197 222.762 490.954 224.016 491.475C225.269 491.996 226.72 492.257 228.383 492.257C229.909 492.257 231.199 492.046 232.279 491.636C233.358 491.227 234.177 490.656 234.76 489.924C235.343 489.192 235.641 488.361 235.654 487.418C235.641 486.537 235.368 485.78 234.835 485.147C234.301 484.514 233.482 483.969 232.378 483.509C231.274 483.05 229.872 482.616 228.172 482.219L223.283 481.078C219.239 480.147 216.05 478.646 213.717 476.574C211.385 474.502 210.231 471.685 210.243 468.137C210.231 465.246 211 462.715 212.576 460.543C214.139 458.372 216.31 456.672 219.077 455.456C221.844 454.24 225.008 453.632 228.544 453.632C232.167 453.632 235.306 454.24 237.986 455.469C240.654 456.697 242.726 458.409 244.202 460.618C245.679 462.826 246.436 465.382 246.461 468.286H235.629V468.248Z" fill="#315A7D"/>
<path d="M278.062 468.248C277.914 466.573 277.231 465.271 276.04 464.34C274.849 463.409 273.149 462.938 270.941 462.938C269.476 462.938 268.261 463.124 267.293 463.509C266.313 463.893 265.593 464.414 265.097 465.072C264.613 465.73 264.365 466.486 264.34 467.343C264.315 468.037 264.451 468.658 264.762 469.191C265.072 469.725 265.531 470.196 266.127 470.593C266.722 471.003 267.454 471.35 268.31 471.66C269.166 471.971 270.122 472.231 271.189 472.454L275.209 473.373C277.516 473.881 279.564 474.539 281.338 475.383C283.112 476.214 284.601 477.219 285.805 478.373C287.008 479.527 287.926 480.854 288.559 482.368C289.179 483.869 289.502 485.557 289.514 487.43C289.502 490.383 288.758 492.914 287.281 495.024C285.805 497.145 283.683 498.758 280.929 499.887C278.174 501.016 274.836 501.575 270.941 501.575C267.032 501.575 263.62 500.991 260.717 499.813C257.814 498.646 255.555 496.86 253.942 494.478C252.329 492.095 251.498 489.068 251.461 485.42H262.28C262.367 486.921 262.776 488.187 263.496 489.192C264.216 490.197 265.196 490.954 266.449 491.475C267.702 491.996 269.154 492.257 270.817 492.257C272.343 492.257 273.633 492.046 274.712 491.636C275.792 491.227 276.611 490.656 277.194 489.924C277.777 489.192 278.075 488.361 278.087 487.418C278.075 486.537 277.802 485.78 277.268 485.147C276.735 484.514 275.916 483.969 274.812 483.509C273.707 483.05 272.305 482.616 270.606 482.219L265.717 481.078C261.672 480.147 258.484 478.646 256.151 476.574C253.818 474.502 252.664 471.685 252.677 468.137C252.664 465.246 253.434 462.715 255.009 460.543C256.573 458.372 258.744 456.672 261.511 455.456C264.278 454.24 267.442 453.632 270.978 453.632C274.601 453.632 277.74 454.24 280.42 455.469C283.087 456.697 285.159 458.409 286.636 460.618C288.112 462.826 288.869 465.382 288.894 468.286H278.062V468.248Z" fill="#315A7D"/>
<path d="M295.246 500.967V454.228H327.828V463.397H306.537V472.976H326.165V482.169H306.537V491.773H327.828V500.942H295.246V500.967Z" fill="#315A7D"/>
<path d="M333.387 463.409V454.24H372.892V463.409H358.723V500.967H347.581V463.409H333.387Z" fill="#315A7D"/>
<path d="M392.26 454.228H406.243L418.105 483.162H418.65L430.512 454.228H444.495V500.967H433.49V472.256H433.105L421.876 500.669H414.841L403.613 472.095H403.228V500.967H392.223V454.228H392.26Z" fill="#315A7D"/>
<path d="M461.702 500.967H449.555L465.325 454.228H480.362L496.132 500.967H483.985L473.005 466.003H472.645L461.702 500.967ZM460.076 482.579H485.449V491.165H460.076V482.579Z" fill="#315A7D"/>
<path d="M540.949 454.228V500.967H531.371L512.772 473.993H512.474V500.967H501.184V454.228H510.899L529.286 481.152H529.671V454.228H540.949Z" fill="#315A7D"/>
<path d="M558.134 500.967H546L561.77 454.228H576.808L592.577 500.967H580.443L569.462 466.003H569.103L558.134 500.967ZM556.509 482.579H581.882V491.165H556.509V482.579Z" fill="#315A7D"/>
<path d="M626.088 469.501C625.827 468.546 625.443 467.69 624.946 466.958C624.45 466.226 623.83 465.593 623.098 465.072C622.366 464.551 621.534 464.166 620.591 463.893C619.649 463.633 618.619 463.496 617.49 463.496C615.219 463.496 613.259 464.042 611.609 465.134C609.958 466.226 608.68 467.826 607.787 469.911C606.894 471.995 606.447 474.539 606.447 477.517C606.447 480.519 606.881 483.075 607.75 485.184C608.618 487.294 609.871 488.907 611.522 490.023C613.159 491.128 615.157 491.686 617.502 491.686C619.574 491.686 621.324 491.351 622.763 490.669C624.202 489.999 625.294 489.031 626.038 487.778C626.783 486.537 627.155 485.06 627.155 483.373L629.252 483.621H617.887V475.407H638.036V481.586C638.036 485.768 637.155 489.353 635.381 492.331C633.607 495.309 631.175 497.604 628.086 499.205C624.984 500.805 621.435 501.599 617.415 501.599C612.961 501.599 609.04 500.632 605.665 498.696C602.291 496.761 599.66 494.006 597.774 490.42C595.888 486.835 594.945 482.579 594.945 477.653C594.945 473.819 595.516 470.42 596.658 467.442C597.799 464.464 599.387 461.945 601.434 459.873C603.482 457.801 605.851 456.238 608.556 455.171C611.261 454.104 614.164 453.57 617.291 453.57C619.996 453.57 622.515 453.955 624.86 454.737C627.205 455.518 629.264 456.61 631.063 458.025C632.862 459.439 634.326 461.126 635.456 463.062C636.585 465.01 637.279 467.144 637.552 469.477H626.088V469.501Z" fill="#315A7D"/>
<path d="M644.688 500.967V454.228H677.269V463.397H655.978V472.976H675.607V482.169H655.978V491.773H677.269V500.942H644.688V500.967Z" fill="#315A7D"/>
<path d="M684.354 454.228H698.337L710.198 483.162H710.744L722.606 454.228H736.589V500.967H725.583V472.256H725.199L713.97 500.669H706.935L695.706 472.095H695.322V500.967H684.316V454.228H684.354Z" fill="#315A7D"/>
<path d="M743.672 500.967V454.228H776.254V463.397H754.963V472.976H774.591V482.169H754.963V491.773H776.254V500.942H743.672V500.967Z" fill="#315A7D"/>
<path d="M823.117 454.228V500.967H813.539L794.94 473.993H794.642V500.967H783.352V454.228H793.067L811.454 481.152H811.839V454.228H823.117Z" fill="#315A7D"/>
<path d="M828.664 463.409V454.24H868.169V463.409H854V500.967H842.858V463.409H828.664Z" fill="#315A7D"/>
</svg>
